<svg width="345" height="164" viewBox="0 0 345 164" fill="none" xmlns="http://www.w3.org/2000/svg">
<rect x="132.5" y="2" width="80" height="80" rx="40" fill="#EA2A33"/>
<g filter="url(#filter0_dd_552_14248)">
<rect x="132.5" y="2" width="80" height="80" rx="40" fill="white" fill-opacity="0.01" shape-rendering="crispEdges"/>
</g>
<path d="M193.789 43.9543C193.869 44.1811 193.938 44.3778 193.941 44.3908C193.944 44.4039 193.912 44.4795 193.869 44.5591C193.822 44.6478 193.77 46.0315 193.735 48.1351C193.716 49.279 193.697 50.4228 193.678 51.5667C193.607 51.7039 193.536 51.8416 193.465 51.9793C193.182 52.5234 192.675 53.1758 192.332 53.4377C191.864 53.795 191.519 53.854 189.893 53.854C189.4 53.854 188.907 53.854 188.414 53.854C188.397 53.7154 188.379 53.5763 188.362 53.4377C188.2 52.1463 187.671 51.0362 186.804 50.1682C184.315 47.6797 180.21 48.424 178.675 51.6418C178.399 52.2187 178.122 53.2073 178.122 53.6114C178.122 53.8166 178.097 53.8607 178.003 53.8247C177.938 53.7995 175.576 53.7793 172.753 53.7793C171.043 53.7793 169.333 53.7793 167.622 53.7793C167.622 53.6978 167.622 53.6164 167.621 53.5354C167.618 52.7632 167.18 51.6967 166.49 50.7819C165.972 50.0939 165.402 49.6151 164.66 49.2434C161.737 47.7796 158.402 49.3717 157.57 52.6287C157.489 52.9446 157.423 53.3518 157.423 53.5336C157.423 53.6438 157.423 53.7541 157.423 53.8643C156.841 53.8562 156.26 53.8481 155.679 53.8405C154.065 53.8184 153.908 53.8045 153.575 53.6501C152.883 53.3311 152.12 52.3384 151.981 51.5771C151.934 51.3174 151.943 51.2918 152.069 51.3273C152.417 51.425 153.073 51.4502 153.481 51.3818C154.441 51.2211 155.23 50.6258 155.646 49.7461C155.865 49.283 155.884 49.1836 155.877 48.5293C155.872 48.0699 155.825 47.7 155.746 47.4885C155.587 47.0669 155.589 47.0543 155.802 47.0003C156.018 46.9463 157.148 46.1035 158.799 44.7648C160.611 43.2956 160.632 43.2794 160.684 43.2794C160.711 43.2794 160.842 43.3626 160.975 43.4647C161.313 43.7217 161.673 43.8607 162.234 43.9503C162.978 44.0691 163.612 43.9327 164.334 43.498C164.426 43.4427 164.517 43.3878 164.609 43.3329C164.673 43.3838 164.738 43.4341 164.802 43.485C164.909 43.5687 165.967 44.5474 167.153 45.6598C169.905 48.2404 170.15 48.4645 170.388 48.622C170.496 48.6936 170.583 48.7777 170.58 48.8092C170.578 48.8407 170.478 49.0693 170.359 49.3168C170.063 49.9292 170.008 50.9066 170.232 51.542C170.86 53.323 172.949 54.0394 174.474 52.9967C175.747 52.1251 176.065 50.5781 175.317 48.8947C175.278 48.8056 175.311 48.7611 175.438 48.7287C175.668 48.6711 176.752 47.7009 178.624 45.8789C179.456 45.068 180.179 44.4043 180.228 44.4043C180.278 44.4043 180.491 44.5942 180.702 44.8259C180.83 44.9668 180.957 45.1072 181.085 45.2476C181.328 44.6383 181.57 44.029 181.812 43.4197C182.212 42.4145 182.561 41.533 182.588 41.461C182.634 41.3399 182.576 41.3332 181.824 41.371C179.875 41.4682 178.314 41.6513 178.227 41.7917C178.166 41.8898 178.317 42.2372 178.708 42.9014C178.818 43.0881 178.928 43.2744 179.038 43.4611C178.954 43.534 178.87 43.6069 178.786 43.6803C178.03 44.3382 175.404 46.8504 174.939 47.3594C174.759 47.5569 174.579 47.7544 174.399 47.952C174.232 47.8696 174.065 47.7877 173.899 47.7054C173.441 47.4804 173.353 47.4624 172.881 47.4962C172.561 47.5191 172.228 47.5983 172.01 47.704C171.893 47.7607 171.775 47.8179 171.657 47.875C171.329 47.551 171 47.2275 170.671 46.904C168.973 45.2327 165.999 42.5274 165.633 42.3227C165.52 42.2601 165.521 42.2205 165.637 41.8214C165.789 41.2958 165.762 40.4292 165.582 40.0732C165.541 39.9922 165.5 39.9108 165.459 39.8298C165.528 39.8298 165.598 39.8298 165.667 39.8298C166.308 39.8298 167.907 40.0071 168.042 40.0935C168.129 40.1484 168.363 40.4575 168.563 40.7801C169.724 42.6557 172.577 46.4292 172.833 46.4292C173.034 46.4292 175.353 43.3397 176.73 41.2382C176.954 40.8971 177.178 40.5561 177.401 40.2145C177.587 40.1974 177.772 40.1799 177.958 40.1628C178.83 40.0809 181.673 40.1731 182.398 40.3068C183.735 40.5529 185.141 41.038 186.934 41.8723C187.553 42.1598 188.483 42.5922 189.002 42.833C190.241 43.4081 190.544 43.485 190.905 43.3136C191.203 43.1723 191.471 42.7466 191.471 42.4154C191.471 41.9717 190.382 38.0631 189.908 36.8032C189.739 36.3559 189.476 35.7651 189.323 35.491C188.942 34.8062 188.185 34.0637 187.572 33.773C186.619 33.3217 186.461 33.305 183.15 33.305C182.145 33.305 181.141 33.305 180.137 33.305C180.156 33.2488 180.176 33.1925 180.196 33.1363C180.286 32.8775 180.241 31.4974 180.131 31.1775C180.099 31.083 180.066 30.9885 180.035 30.8936C181.137 30.8963 182.239 30.899 183.342 30.9017C185.161 30.9057 186.832 30.939 187.054 30.9759C188.41 31.1986 189.761 32.136 190.603 33.4373C191.546 34.8957 192.439 37.7612 193.424 42.4919C193.544 43.0697 193.708 43.7275 193.789 43.9543Z" fill="#FEFEFE"/>
<path d="M168.747 38.2553C168.766 38.2553 168.785 38.2553 168.803 38.2553C168.834 38.2553 168.724 38.0105 168.558 37.7112C168.247 37.1515 168.217 37.0903 167.714 35.9968C167.55 35.6418 167.378 35.3295 167.247 35.2552C167.159 34.9488 167.07 34.6428 166.981 34.3364C166.511 32.7164 166.55 31.6689 167.126 30.4224C167.491 29.6313 167.939 29.0023 168.629 28.3106C169.706 27.2311 170.93 26.6668 172.385 26.5809C174.056 26.4819 175.473 26.9679 176.802 28.0946C178.286 29.3541 179.156 31.5231 178.874 33.2604C178.575 35.1058 177.34 37.5654 174.695 41.5842C173.461 43.4589 172.968 44.1266 172.864 44.0623C172.77 44.0047 171.156 41.8614 170.319 40.6834C169.963 40.1834 169.464 39.4324 168.747 38.2553ZM169.767 31.6554C169.359 33.1889 170.108 34.7629 171.578 35.4654C172.124 35.7259 172.203 35.7426 172.872 35.7403C173.851 35.7372 174.295 35.5572 174.969 34.8898C175.269 34.5937 175.554 34.223 175.676 33.9723C176.463 32.3452 175.784 30.4881 174.096 29.6538C173.546 29.382 173.482 29.3681 172.801 29.3703C172.241 29.3721 171.994 29.409 171.669 29.5386C170.784 29.8919 170.005 30.7581 169.767 31.6554Z" fill="#FEFEFE"/>
<path d="M160.701 30.9245C162.307 30.9101 163.912 30.8953 165.517 30.8809C165.499 30.9785 165.481 31.0762 165.463 31.1738C165.402 31.5099 165.392 32.7123 165.448 33.0327C165.46 33.1047 165.473 33.1762 165.485 33.2482C164.96 33.2604 164.435 33.2725 163.91 33.2847C163.044 33.3049 162.327 33.3288 162.316 33.3382C162.306 33.3472 162.285 34.447 162.271 35.7812C162.262 36.5903 162.253 37.3989 162.244 38.2075C162.121 38.2498 161.997 38.2916 161.873 38.3339C161.335 38.5166 161.018 38.6903 160.742 38.9522C160.66 39.0292 160.579 39.1066 160.498 39.1835C160.498 38.2075 160.498 37.2319 160.498 36.2559C160.498 35.2799 160.498 34.3039 160.498 33.3279C159.854 33.3126 159.21 33.2973 158.567 33.282C155.855 33.2176 155.342 33.2941 154.662 33.8665C154.059 34.3741 153.997 34.7989 154.084 37.8228C154.103 38.4667 154.122 39.1102 154.14 39.7541C155.15 39.7541 156.16 39.7541 157.171 39.7541C158.181 39.7541 159.192 39.7541 160.202 39.7541C160.167 39.8229 160.132 39.8918 160.097 39.9602C159.836 40.4772 159.753 41.5396 159.937 42.0193C159.974 42.1156 159.897 42.1903 159.609 42.3361C159.112 42.5876 158.084 43.3693 156.305 44.8484C155.504 45.5139 154.829 46.0489 154.805 46.0368C154.78 46.0251 154.541 45.9 154.273 45.7591C153.863 45.5445 153.69 45.4986 153.186 45.4738C152.819 45.4558 152.46 45.4828 152.264 45.5427C152.157 45.576 152.049 45.6084 151.942 45.6412C151.943 43.8111 151.945 41.9815 151.946 40.1514C151.951 34.9109 151.958 34.6391 152.098 34.1833C152.512 32.8446 153.784 31.6373 155.286 31.1594C155.486 31.096 155.685 31.0325 155.886 30.9686C157.491 30.9542 159.096 30.9394 160.701 30.9245Z" fill="#FEFEFE"/>
<path d="M186.868 52.7303C186.928 52.9351 186.959 53.3783 186.949 53.8553C186.933 54.5928 186.914 54.6806 186.652 55.2318C186.294 55.9855 185.577 56.7239 184.872 57.0668C183.484 57.7413 181.847 57.4286 180.679 56.2654C179.831 55.4212 179.499 54.5672 179.56 53.3923C179.598 52.6673 179.862 52.0041 180.378 51.3358C181.169 50.3108 182.696 49.7573 183.991 50.0268C185.308 50.3004 186.483 51.4056 186.868 52.7303ZM181.597 53.143C181.534 53.2807 181.503 53.5601 181.516 53.8643C181.559 54.8421 182.232 55.5117 183.228 55.5679C183.869 55.6039 184.329 55.4073 184.654 54.9582C185.172 54.2441 185.179 53.4687 184.677 52.7812C183.876 51.6855 182.169 51.8862 181.597 53.143Z" fill="#FEFEFE"/>
<path d="M166.191 53.1053C166.515 55.0411 165.168 56.9347 163.169 57.354C162.835 57.4242 162.481 57.4485 162.222 57.4188C158.991 57.0489 157.639 53.36 159.897 51.0718C161.051 49.9019 162.584 49.6373 164.091 50.3478C165.072 50.8104 166.014 52.0474 166.191 53.1053ZM160.833 53.1512C160.409 54.3414 161.262 55.5834 162.501 55.5784C163.054 55.5762 163.467 55.3903 163.812 54.9871C164.758 53.882 164.042 52.1743 162.589 52.069C162.022 52.028 161.597 52.1837 161.219 52.5707C161.064 52.7296 160.89 52.991 160.833 53.1512Z" fill="#FEFEFE"/>
<path d="M169.767 31.6553C170.006 30.7581 170.784 29.8918 171.669 29.5386C171.994 29.409 172.241 29.3721 172.801 29.3703C173.483 29.3681 173.546 29.382 174.096 29.6538C175.784 30.4881 176.464 32.3451 175.676 33.9723C175.554 34.2229 175.269 34.5937 174.969 34.8898C174.295 35.5571 173.851 35.7371 172.872 35.7403C172.203 35.7425 172.125 35.7259 171.579 35.4653C170.108 34.7629 169.359 33.1889 169.767 31.6553ZM173.87 32.4207C173.851 32.3262 173.719 32.1323 173.577 31.9897C173.343 31.7561 173.276 31.7305 172.9 31.7305C172.527 31.7305 172.456 31.757 172.233 31.9793C171.924 32.2884 171.843 32.6543 171.999 33.0291C172.277 33.6951 173.29 33.8143 173.703 33.2303C173.851 33.0215 173.921 32.6822 173.87 32.4207Z" fill="#EF4444"/>
<path d="M164.612 40.4434C164.883 41.3825 164.44 42.2847 163.507 42.6996C163.003 42.9237 162.213 42.8639 161.73 42.5651C161.249 42.2676 160.933 41.7614 160.888 41.2151C160.86 40.8808 160.89 40.7327 161.055 40.3966C161.505 39.4768 162.516 39.0822 163.535 39.4296C163.97 39.5776 164.509 40.0852 164.612 40.4434Z" fill="#FEFEFE"/>
<path d="M174.604 50.1343C174.688 50.4628 174.614 51.0523 174.448 51.3767C173.886 52.4792 172.478 52.6807 171.662 51.7763C171.309 51.3848 171.199 51.0334 171.234 50.4164C171.258 50.0006 171.304 49.8571 171.51 49.5583C171.646 49.3612 171.896 49.1079 172.065 48.9958C172.334 48.8181 172.448 48.792 172.954 48.792C173.479 48.792 173.565 48.8136 173.859 49.0206C174.189 49.2523 174.497 49.7127 174.604 50.1343Z" fill="#FEFEFE"/>
<path d="M154.583 47.6663C154.981 48.5433 154.546 49.6548 153.639 50.0773C152.649 50.5385 151.428 50.0431 151.133 49.0612C150.765 47.8323 151.82 46.4869 153.063 46.5994C153.303 46.621 153.602 46.6921 153.728 46.7573C154.058 46.9279 154.424 47.3176 154.583 47.6663Z" fill="#FEFEFE"/>
<path d="M173.869 32.4207C173.92 32.6822 173.85 33.0215 173.703 33.2303C173.289 33.8143 172.277 33.6951 171.999 33.0291C171.842 32.6543 171.924 32.2884 172.233 31.9793C172.455 31.757 172.527 31.7305 172.899 31.7305C173.276 31.7305 173.343 31.7561 173.576 31.9897C173.719 32.1323 173.851 32.3262 173.869 32.4207Z" fill="#E5E5E5"/>
<path d="M167.248 35.2549C167.379 35.3291 167.55 35.6414 167.714 35.9965C168.217 37.0899 168.247 37.1511 168.558 37.7109C168.724 38.0101 168.835 38.2549 168.804 38.2549C168.785 38.2549 168.766 38.2549 168.747 38.2549C168.694 38.1739 168.641 38.0934 168.588 38.0124C168.313 37.5943 167.567 36.0604 167.248 35.2549Z" fill="#DECECA"/>
<path d="M77.4564 131V110H83.3064L91.4964 121.55V110H97.0464V131H91.4964L83.0064 119.03V131H77.4564ZM118.24 131L110.56 110H116.08L124.12 131H118.24ZM102.07 131L110.11 110H115.63L107.95 131H102.07ZM105.85 127.64V122.75H120.37V127.64H105.85ZM132.93 131L140.31 110H146.31L138.3 131H132.93ZM132.3 131L124.23 110H130.23L137.67 131H132.3ZM151.32 131V110H156.87V131H151.32ZM173.45 131.36C171.29 131.36 169.38 130.9 167.72 129.98C166.06 129.04 164.76 127.76 163.82 126.14C162.88 124.5 162.41 122.62 162.41 120.5C162.41 118.38 162.88 116.51 163.82 114.89C164.76 113.25 166.06 111.97 167.72 111.05C169.38 110.11 171.29 109.64 173.45 109.64C174.87 109.64 176.12 109.84 177.2 110.24C178.3 110.64 179.25 111.19 180.05 111.89C180.85 112.57 181.53 113.36 182.09 114.26L177.47 116.99C177.19 116.55 176.83 116.16 176.39 115.82C175.97 115.48 175.5 115.22 174.98 115.04C174.48 114.84 173.97 114.74 173.45 114.74C172.41 114.74 171.49 114.99 170.69 115.49C169.89 115.97 169.26 116.64 168.8 117.5C168.34 118.36 168.11 119.36 168.11 120.5C168.11 121.62 168.33 122.62 168.77 123.5C169.21 124.38 169.84 125.07 170.66 125.57C171.5 126.07 172.48 126.32 173.6 126.32C174.4 126.32 175.11 126.18 175.73 125.9C176.35 125.6 176.84 125.19 177.2 124.67C177.56 124.13 177.74 123.51 177.74 122.81L183.02 121.82C183.02 123.94 182.61 125.71 181.79 127.13C180.97 128.55 179.84 129.61 178.4 130.31C176.98 131.01 175.33 131.36 173.45 131.36ZM173.06 123.44V119.24H183.02V122.33L179.87 123.44H173.06ZM195.607 131.36C194.627 131.36 193.667 131.23 192.727 130.97C191.787 130.69 190.927 130.31 190.147 129.83C189.387 129.35 188.757 128.81 188.257 128.21C187.757 127.59 187.457 126.94 187.357 126.26L192.877 124.73C193.057 125.23 193.367 125.66 193.807 126.02C194.247 126.36 194.817 126.55 195.517 126.59C196.077 126.61 196.567 126.46 196.987 126.14C197.427 125.82 197.647 125.4 197.647 124.88C197.647 124.54 197.517 124.22 197.257 123.92C197.017 123.6 196.627 123.37 196.087 123.23L192.937 122.42C191.857 122.14 190.927 121.71 190.147 121.13C189.387 120.55 188.797 119.84 188.377 119C187.977 118.16 187.777 117.22 187.777 116.18C187.777 114.12 188.457 112.52 189.817 111.38C191.197 110.22 193.127 109.64 195.607 109.64C196.927 109.64 198.087 109.81 199.087 110.15C200.107 110.49 200.977 111.03 201.697 111.77C202.437 112.49 203.047 113.44 203.527 114.62L198.037 116.21C197.937 115.81 197.677 115.41 197.257 115.01C196.857 114.61 196.307 114.41 195.607 114.41C194.927 114.41 194.397 114.56 194.017 114.86C193.657 115.16 193.477 115.6 193.477 116.18C193.477 116.54 193.627 116.86 193.927 117.14C194.227 117.4 194.657 117.6 195.217 117.74L198.397 118.55C199.997 118.95 201.247 119.74 202.147 120.92C203.047 122.08 203.497 123.41 203.497 124.91C203.497 126.29 203.177 127.46 202.537 128.42C201.917 129.38 201.017 130.11 199.837 130.61C198.657 131.11 197.247 131.36 195.607 131.36ZM213.895 131V115.1H207.955V110H225.355V115.1H219.445V131H213.895ZM230.673 131V110H244.743V115.1H236.223V118.01H243.123V122.96H236.223V125.9H244.953V131H230.673ZM251.251 131V110H259.951C261.531 110 262.931 110.31 264.151 110.93C265.371 111.53 266.321 112.37 267.001 113.45C267.701 114.51 268.051 115.74 268.051 117.14C268.051 118.54 267.701 119.79 267.001 120.89C266.321 121.97 265.371 122.82 264.151 123.44C262.931 124.04 261.531 124.34 259.951 124.34H256.801V131H251.251ZM262.531 131L257.851 122.75L262.021 119.63L268.891 131H262.531ZM256.801 119.24H259.651C260.151 119.24 260.591 119.15 260.971 118.97C261.351 118.79 261.651 118.54 261.871 118.22C262.091 117.9 262.201 117.54 262.201 117.14C262.201 116.54 261.961 116.05 261.481 115.67C261.021 115.27 260.411 115.07 259.651 115.07H256.801V119.24Z" fill="#EA2A33"/>
<path d="M89.4283 158.18C88.8683 158.18 88.3583 158.115 87.8983 157.985C87.4483 157.855 87.0533 157.68 86.7133 157.46C86.3833 157.23 86.1083 156.975 85.8883 156.695C85.6683 156.415 85.5133 156.12 85.4233 155.81L86.8483 155.345C86.9983 155.755 87.2833 156.11 87.7033 156.41C88.1233 156.71 88.6383 156.865 89.2483 156.875C89.9883 156.875 90.5683 156.73 90.9883 156.44C91.4183 156.14 91.6333 155.745 91.6333 155.255C91.6333 154.805 91.4483 154.44 91.0783 154.16C90.7083 153.87 90.2183 153.65 89.6083 153.5L88.3933 153.185C87.9133 153.055 87.4733 152.87 87.0733 152.63C86.6833 152.39 86.3733 152.085 86.1433 151.715C85.9133 151.345 85.7983 150.9 85.7983 150.38C85.7983 149.42 86.1083 148.67 86.7283 148.13C87.3583 147.59 88.2633 147.32 89.4433 147.32C90.1233 147.32 90.7133 147.43 91.2133 147.65C91.7133 147.86 92.1233 148.14 92.4433 148.49C92.7733 148.84 93.0083 149.225 93.1483 149.645L91.7233 150.125C91.5533 149.675 91.2633 149.315 90.8533 149.045C90.4433 148.765 89.9383 148.625 89.3383 148.625C88.7083 148.625 88.2083 148.775 87.8383 149.075C87.4783 149.375 87.2983 149.785 87.2983 150.305C87.2983 150.745 87.4383 151.085 87.7183 151.325C88.0083 151.555 88.3933 151.73 88.8733 151.85L90.0883 152.15C91.0683 152.39 91.8233 152.79 92.3533 153.35C92.8933 153.9 93.1633 154.505 93.1633 155.165C93.1633 155.735 93.0183 156.25 92.7283 156.71C92.4483 157.16 92.0283 157.52 91.4683 157.79C90.9183 158.05 90.2383 158.18 89.4283 158.18ZM95.2529 158V150.5H96.5879L96.6479 151.535C96.8879 151.135 97.1879 150.835 97.5479 150.635C97.9079 150.425 98.3229 150.32 98.7929 150.32C99.3929 150.32 99.9029 150.46 100.323 150.74C100.743 151.01 101.048 151.425 101.238 151.985C101.458 151.445 101.768 151.035 102.168 150.755C102.568 150.465 103.043 150.32 103.593 150.32C104.443 150.32 105.108 150.6 105.588 151.16C106.068 151.71 106.303 152.56 106.293 153.71V158H104.883V154.16C104.883 153.48 104.808 152.965 104.658 152.615C104.518 152.255 104.328 152.005 104.088 151.865C103.848 151.725 103.568 151.65 103.248 151.64C102.688 151.64 102.253 151.855 101.943 152.285C101.643 152.715 101.493 153.32 101.493 154.1V158H100.068V154.16C100.068 153.48 99.9979 152.965 99.8579 152.615C99.7179 152.255 99.5229 152.005 99.2729 151.865C99.0329 151.725 98.7529 151.65 98.4329 151.64C97.8729 151.64 97.4379 151.855 97.1279 152.285C96.8279 152.715 96.6779 153.32 96.6779 154.1V158H95.2529ZM113.094 158L113.034 156.695V154.085C113.034 153.535 112.969 153.075 112.839 152.705C112.719 152.335 112.529 152.055 112.269 151.865C112.019 151.675 111.684 151.58 111.264 151.58C110.874 151.58 110.534 151.66 110.244 151.82C109.964 151.98 109.729 152.23 109.539 152.57L108.279 152.09C108.459 151.75 108.684 151.45 108.954 151.19C109.224 150.92 109.549 150.71 109.929 150.56C110.309 150.4 110.754 150.32 111.264 150.32C111.974 150.32 112.564 150.46 113.034 150.74C113.504 151.02 113.854 151.425 114.084 151.955C114.324 152.485 114.439 153.14 114.429 153.92L114.414 158H113.094ZM110.889 158.18C109.999 158.18 109.304 157.98 108.804 157.58C108.314 157.17 108.069 156.605 108.069 155.885C108.069 155.115 108.324 154.53 108.834 154.13C109.354 153.72 110.074 153.515 110.994 153.515H113.079V154.64H111.384C110.694 154.64 110.209 154.75 109.929 154.97C109.649 155.18 109.509 155.475 109.509 155.855C109.509 156.205 109.639 156.48 109.899 156.68C110.169 156.87 110.539 156.965 111.009 156.965C111.419 156.965 111.774 156.88 112.074 156.71C112.374 156.53 112.609 156.28 112.779 155.96C112.949 155.64 113.034 155.275 113.034 154.865H113.529C113.529 155.885 113.309 156.695 112.869 157.295C112.439 157.885 111.779 158.18 110.889 158.18ZM117.469 153.965C117.469 153.155 117.624 152.495 117.934 151.985C118.244 151.475 118.644 151.095 119.134 150.845C119.624 150.595 120.139 150.47 120.679 150.47V151.82C120.229 151.82 119.799 151.89 119.389 152.03C118.989 152.16 118.659 152.38 118.399 152.69C118.149 152.99 118.024 153.4 118.024 153.92L117.469 153.965ZM116.599 158V150.5H118.024V158H116.599ZM125.098 158.18C124.348 158.18 123.768 157.99 123.358 157.61C122.948 157.22 122.743 156.665 122.743 155.945V148.16H124.168V155.735C124.168 156.105 124.258 156.39 124.438 156.59C124.628 156.78 124.898 156.875 125.248 156.875C125.348 156.875 125.458 156.855 125.578 156.815C125.698 156.775 125.843 156.695 126.013 156.575L126.553 157.685C126.293 157.855 126.043 157.98 125.803 158.06C125.573 158.14 125.338 158.18 125.098 158.18ZM121.468 151.73V150.5H126.298V151.73H121.468ZM136.107 158.18C135.547 158.18 135.037 158.115 134.577 157.985C134.127 157.855 133.732 157.68 133.392 157.46C133.062 157.23 132.787 156.975 132.567 156.695C132.347 156.415 132.192 156.12 132.102 155.81L133.527 155.345C133.677 155.755 133.962 156.11 134.382 156.41C134.802 156.71 135.317 156.865 135.927 156.875C136.667 156.875 137.247 156.73 137.667 156.44C138.097 156.14 138.312 155.745 138.312 155.255C138.312 154.805 138.127 154.44 137.757 154.16C137.387 153.87 136.897 153.65 136.287 153.5L135.072 153.185C134.592 153.055 134.152 152.87 133.752 152.63C133.362 152.39 133.052 152.085 132.822 151.715C132.592 151.345 132.477 150.9 132.477 150.38C132.477 149.42 132.787 148.67 133.407 148.13C134.037 147.59 134.942 147.32 136.122 147.32C136.802 147.32 137.392 147.43 137.892 147.65C138.392 147.86 138.802 148.14 139.122 148.49C139.452 148.84 139.687 149.225 139.827 149.645L138.402 150.125C138.232 149.675 137.942 149.315 137.532 149.045C137.122 148.765 136.617 148.625 136.017 148.625C135.387 148.625 134.887 148.775 134.517 149.075C134.157 149.375 133.977 149.785 133.977 150.305C133.977 150.745 134.117 151.085 134.397 151.325C134.687 151.555 135.072 151.73 135.552 151.85L136.767 152.15C137.747 152.39 138.502 152.79 139.032 153.35C139.572 153.9 139.842 154.505 139.842 155.165C139.842 155.735 139.697 156.25 139.407 156.71C139.127 157.16 138.707 157.52 138.147 157.79C137.597 158.05 136.917 158.18 136.107 158.18ZM144.827 158.18C144.077 158.18 143.497 157.99 143.087 157.61C142.677 157.22 142.472 156.665 142.472 155.945V148.16H143.897V155.735C143.897 156.105 143.987 156.39 144.167 156.59C144.357 156.78 144.627 156.875 144.977 156.875C145.077 156.875 145.187 156.855 145.307 156.815C145.427 156.775 145.572 156.695 145.742 156.575L146.282 157.685C146.022 157.855 145.772 157.98 145.532 158.06C145.302 158.14 145.067 158.18 144.827 158.18ZM141.197 151.73V150.5H146.027V151.73H141.197ZM153.163 158L153.073 156.62V150.5H154.483V158H153.163ZM147.883 154.34V150.5H149.308V154.34H147.883ZM149.308 154.34C149.308 155.01 149.383 155.525 149.533 155.885C149.693 156.245 149.913 156.495 150.193 156.635C150.473 156.775 150.788 156.85 151.138 156.86C151.748 156.86 152.223 156.645 152.563 156.215C152.903 155.785 153.073 155.18 153.073 154.4H153.688C153.688 155.19 153.568 155.87 153.328 156.44C153.098 157 152.768 157.43 152.338 157.73C151.908 158.03 151.383 158.18 150.763 158.18C150.183 158.18 149.673 158.06 149.233 157.82C148.803 157.58 148.468 157.205 148.228 156.695C147.998 156.185 147.883 155.525 147.883 154.715V154.34H149.308ZM162.337 158L162.277 156.605V147.5H163.687V158H162.337ZM159.817 158.18C159.137 158.18 158.542 158.015 158.032 157.685C157.532 157.355 157.137 156.895 156.847 156.305C156.567 155.715 156.427 155.03 156.427 154.25C156.427 153.46 156.567 152.775 156.847 152.195C157.137 151.605 157.532 151.145 158.032 150.815C158.542 150.485 159.137 150.32 159.817 150.32C160.447 150.32 160.992 150.485 161.452 150.815C161.922 151.145 162.282 151.605 162.532 152.195C162.782 152.775 162.907 153.46 162.907 154.25C162.907 155.03 162.782 155.715 162.532 156.305C162.282 156.895 161.922 157.355 161.452 157.685C160.992 158.015 160.447 158.18 159.817 158.18ZM160.147 156.89C160.567 156.89 160.937 156.78 161.257 156.56C161.577 156.33 161.827 156.02 162.007 155.63C162.187 155.23 162.277 154.77 162.277 154.25C162.277 153.73 162.187 153.275 162.007 152.885C161.827 152.485 161.577 152.175 161.257 151.955C160.937 151.725 160.562 151.61 160.132 151.61C159.692 151.61 159.302 151.725 158.962 151.955C158.622 152.175 158.357 152.485 158.167 152.885C157.977 153.275 157.882 153.73 157.882 154.25C157.882 154.77 157.977 155.23 158.167 155.63C158.367 156.02 158.637 156.33 158.977 156.56C159.317 156.78 159.707 156.89 160.147 156.89ZM169.355 158.18C168.625 158.18 167.98 158.015 167.42 157.685C166.86 157.345 166.42 156.88 166.1 156.29C165.78 155.7 165.62 155.02 165.62 154.25C165.62 153.48 165.78 152.8 166.1 152.21C166.42 151.62 166.86 151.16 167.42 150.83C167.99 150.49 168.64 150.32 169.37 150.32C170.06 150.32 170.665 150.495 171.185 150.845C171.705 151.185 172.11 151.675 172.4 152.315C172.7 152.945 172.85 153.69 172.85 154.55H166.79L167.06 154.325C167.06 154.855 167.165 155.315 167.375 155.705C167.585 156.095 167.87 156.395 168.23 156.605C168.59 156.805 169 156.905 169.46 156.905C169.96 156.905 170.375 156.79 170.705 156.56C171.045 156.32 171.31 156.02 171.5 155.66L172.73 156.23C172.53 156.62 172.27 156.965 171.95 157.265C171.63 157.555 171.25 157.78 170.81 157.94C170.38 158.1 169.895 158.18 169.355 158.18ZM167.15 153.65L166.865 153.425H171.605L171.335 153.65C171.335 153.21 171.245 152.835 171.065 152.525C170.885 152.205 170.645 151.965 170.345 151.805C170.045 151.635 169.71 151.55 169.34 151.55C168.98 151.55 168.63 151.635 168.29 151.805C167.96 151.965 167.685 152.2 167.465 152.51C167.255 152.82 167.15 153.2 167.15 153.65ZM174.633 158V150.5H175.968L176.058 151.88V158H174.633ZM179.823 158V154.16H181.248V158H179.823ZM179.823 154.16C179.823 153.48 179.743 152.965 179.583 152.615C179.433 152.255 179.218 152.005 178.938 151.865C178.668 151.725 178.353 151.65 177.993 151.64C177.383 151.64 176.908 151.855 176.568 152.285C176.228 152.715 176.058 153.32 176.058 154.1H175.443C175.443 153.31 175.558 152.635 175.788 152.075C176.028 151.505 176.363 151.07 176.793 150.77C177.233 150.47 177.753 150.32 178.353 150.32C178.943 150.32 179.453 150.44 179.883 150.68C180.323 150.92 180.658 151.295 180.888 151.805C181.128 152.305 181.248 152.965 181.248 153.785V154.16H179.823ZM186.311 158.18C185.561 158.18 184.981 157.99 184.571 157.61C184.161 157.22 183.956 156.665 183.956 155.945V148.16H185.381V155.735C185.381 156.105 185.471 156.39 185.651 156.59C185.841 156.78 186.111 156.875 186.461 156.875C186.561 156.875 186.671 156.855 186.791 156.815C186.911 156.775 187.056 156.695 187.226 156.575L187.766 157.685C187.506 157.855 187.256 157.98 187.016 158.06C186.786 158.14 186.551 158.18 186.311 158.18ZM182.681 151.73V150.5H187.511V151.73H182.681ZM196.06 158V148.85H192.775V147.5H200.83V148.85H197.545V158H196.06ZM202.579 153.965C202.579 153.155 202.734 152.495 203.044 151.985C203.354 151.475 203.754 151.095 204.244 150.845C204.734 150.595 205.249 150.47 205.789 150.47V151.82C205.339 151.82 204.909 151.89 204.499 152.03C204.099 152.16 203.769 152.38 203.509 152.69C203.259 152.99 203.134 153.4 203.134 153.92L202.579 153.965ZM201.709 158V150.5H203.134V158H201.709ZM211.918 158L211.858 156.695V154.085C211.858 153.535 211.793 153.075 211.663 152.705C211.543 152.335 211.353 152.055 211.093 151.865C210.843 151.675 210.508 151.58 210.088 151.58C209.698 151.58 209.358 151.66 209.068 151.82C208.788 151.98 208.553 152.23 208.363 152.57L207.103 152.09C207.283 151.75 207.508 151.45 207.778 151.19C208.048 150.92 208.373 150.71 208.753 150.56C209.133 150.4 209.578 150.32 210.088 150.32C210.798 150.32 211.388 150.46 211.858 150.74C212.328 151.02 212.678 151.425 212.908 151.955C213.148 152.485 213.263 153.14 213.253 153.92L213.238 158H211.918ZM209.713 158.18C208.823 158.18 208.128 157.98 207.628 157.58C207.138 157.17 206.893 156.605 206.893 155.885C206.893 155.115 207.148 154.53 207.658 154.13C208.178 153.72 208.898 153.515 209.818 153.515H211.903V154.64H210.208C209.518 154.64 209.033 154.75 208.753 154.97C208.473 155.18 208.333 155.475 208.333 155.855C208.333 156.205 208.463 156.48 208.723 156.68C208.993 156.87 209.363 156.965 209.833 156.965C210.243 156.965 210.598 156.88 210.898 156.71C211.198 156.53 211.433 156.28 211.603 155.96C211.773 155.64 211.858 155.275 211.858 154.865H212.353C212.353 155.885 212.133 156.695 211.693 157.295C211.263 157.885 210.603 158.18 209.713 158.18ZM215.423 158V150.5H216.758L216.848 151.88V158H215.423ZM220.613 158V154.16H222.038V158H220.613ZM220.613 154.16C220.613 153.48 220.533 152.965 220.373 152.615C220.223 152.255 220.008 152.005 219.728 151.865C219.458 151.725 219.143 151.65 218.783 151.64C218.173 151.64 217.698 151.855 217.358 152.285C217.018 152.715 216.848 153.32 216.848 154.1H216.233C216.233 153.31 216.348 152.635 216.578 152.075C216.818 151.505 217.153 151.07 217.583 150.77C218.023 150.47 218.543 150.32 219.143 150.32C219.733 150.32 220.243 150.44 220.673 150.68C221.113 150.92 221.448 151.295 221.678 151.805C221.918 152.305 222.038 152.965 222.038 153.785V154.16H220.613ZM226.891 158.18C226.361 158.18 225.886 158.1 225.466 157.94C225.056 157.78 224.706 157.565 224.416 157.295C224.136 157.025 223.926 156.72 223.786 156.38L225.016 155.84C225.176 156.15 225.416 156.405 225.736 156.605C226.056 156.805 226.411 156.905 226.801 156.905C227.231 156.905 227.586 156.825 227.866 156.665C228.146 156.505 228.286 156.28 228.286 155.99C228.286 155.71 228.181 155.49 227.971 155.33C227.761 155.17 227.456 155.04 227.056 154.94L226.351 154.76C225.651 154.57 225.106 154.285 224.716 153.905C224.336 153.525 224.146 153.095 224.146 152.615C224.146 151.885 224.381 151.32 224.851 150.92C225.321 150.52 226.016 150.32 226.936 150.32C227.386 150.32 227.796 150.385 228.166 150.515C228.546 150.645 228.866 150.83 229.126 151.07C229.396 151.31 229.586 151.595 229.696 151.925L228.496 152.465C228.376 152.165 228.171 151.945 227.881 151.805C227.591 151.655 227.251 151.58 226.861 151.58C226.461 151.58 226.146 151.67 225.916 151.85C225.686 152.02 225.571 152.26 225.571 152.57C225.571 152.74 225.666 152.905 225.856 153.065C226.056 153.215 226.346 153.34 226.726 153.44L227.536 153.635C228.026 153.755 228.431 153.94 228.751 154.19C229.071 154.43 229.311 154.705 229.471 155.015C229.631 155.315 229.711 155.63 229.711 155.96C229.711 156.41 229.586 156.805 229.336 157.145C229.096 157.475 228.761 157.73 228.331 157.91C227.911 158.09 227.431 158.18 226.891 158.18ZM231.643 161V150.5H232.978L233.068 151.88V161H231.643ZM235.528 158.18C234.898 158.18 234.348 158.015 233.878 157.685C233.418 157.355 233.063 156.895 232.813 156.305C232.563 155.715 232.438 155.03 232.438 154.25C232.438 153.46 232.563 152.775 232.813 152.195C233.063 151.605 233.418 151.145 233.878 150.815C234.348 150.485 234.898 150.32 235.528 150.32C236.198 150.32 236.788 150.485 237.298 150.815C237.808 151.145 238.203 151.605 238.483 152.195C238.773 152.775 238.918 153.46 238.918 154.25C238.918 155.03 238.773 155.715 238.483 156.305C238.203 156.895 237.808 157.355 237.298 157.685C236.788 158.015 236.198 158.18 235.528 158.18ZM235.183 156.89C235.633 156.89 236.028 156.78 236.368 156.56C236.708 156.33 236.973 156.02 237.163 155.63C237.363 155.23 237.463 154.77 237.463 154.25C237.463 153.73 237.368 153.275 237.178 152.885C236.988 152.485 236.723 152.175 236.383 151.955C236.043 151.725 235.648 151.61 235.198 151.61C234.788 151.61 234.418 151.725 234.088 151.955C233.768 152.175 233.518 152.485 233.338 152.885C233.158 153.285 233.068 153.74 233.068 154.25C233.068 154.77 233.158 155.23 233.338 155.63C233.518 156.02 233.768 156.33 234.088 156.56C234.408 156.78 234.773 156.89 235.183 156.89ZM244.24 158.18C243.49 158.18 242.83 158.015 242.26 157.685C241.69 157.345 241.24 156.88 240.91 156.29C240.59 155.7 240.43 155.02 240.43 154.25C240.43 153.48 240.59 152.8 240.91 152.21C241.23 151.62 241.675 151.16 242.245 150.83C242.815 150.49 243.47 150.32 244.21 150.32C244.95 150.32 245.605 150.49 246.175 150.83C246.745 151.16 247.19 151.62 247.51 152.21C247.83 152.8 247.99 153.48 247.99 154.25C247.99 155.02 247.83 155.7 247.51 156.29C247.19 156.88 246.745 157.345 246.175 157.685C245.615 158.015 244.97 158.18 244.24 158.18ZM244.24 156.875C244.69 156.875 245.09 156.765 245.44 156.545C245.79 156.315 246.06 156.005 246.25 155.615C246.45 155.225 246.55 154.77 246.55 154.25C246.55 153.73 246.45 153.275 246.25 152.885C246.06 152.495 245.785 152.19 245.425 151.97C245.065 151.74 244.66 151.625 244.21 151.625C243.75 151.625 243.345 151.74 242.995 151.97C242.645 152.19 242.37 152.495 242.17 152.885C241.97 153.275 241.87 153.73 241.87 154.25C241.87 154.77 241.97 155.225 242.17 155.615C242.37 156.005 242.65 156.315 243.01 156.545C243.37 156.765 243.78 156.875 244.24 156.875ZM250.796 153.965C250.796 153.155 250.951 152.495 251.261 151.985C251.571 151.475 251.971 151.095 252.461 150.845C252.951 150.595 253.466 150.47 254.006 150.47V151.82C253.556 151.82 253.126 151.89 252.716 152.03C252.316 152.16 251.986 152.38 251.726 152.69C251.476 152.99 251.351 153.4 251.351 153.92L250.796 153.965ZM249.926 158V150.5H251.351V158H249.926ZM258.425 158.18C257.675 158.18 257.095 157.99 256.685 157.61C256.275 157.22 256.07 156.665 256.07 155.945V148.16H257.495V155.735C257.495 156.105 257.585 156.39 257.765 156.59C257.955 156.78 258.225 156.875 258.575 156.875C258.675 156.875 258.785 156.855 258.905 156.815C259.025 156.775 259.17 156.695 259.34 156.575L259.88 157.685C259.62 157.855 259.37 157.98 259.13 158.06C258.9 158.14 258.665 158.18 258.425 158.18ZM254.795 151.73V150.5H259.625V151.73H254.795Z" fill="#666666"/>
<defs>
<filter id="filter0_dd_552_14248" x="120.5" y="0" width="104" height="104" filterUnits="userSpaceOnUse" color-interpolation-filters="sRGB">
<feFlood flood-opacity="0" result="BackgroundImageFix"/>
<feColorMatrix in="SourceAlpha" type="matrix" values="0 0 0 0 0 0 0 0 0 0 0 0 0 0 0 0 0 0 127 0" result="hardAlpha"/>
<feMorphology radius="4" operator="erode" in="SourceAlpha" result="effect1_dropShadow_552_14248"/>
<feOffset dy="4"/>
<feGaussianBlur stdDeviation="3"/>
<feComposite in2="hardAlpha" operator="out"/>
<feColorMatrix type="matrix" values="0 0 0 0 0.917647 0 0 0 0 0.164706 0 0 0 0 0.2 0 0 0 0.2 0"/>
<feBlend mode="normal" in2="BackgroundImageFix" result="effect1_dropShadow_552_14248"/>
<feColorMatrix in="SourceAlpha" type="matrix" values="0 0 0 0 0 0 0 0 0 0 0 0 0 0 0 0 0 0 127 0" result="hardAlpha"/>
<feMorphology radius="3" operator="erode" in="SourceAlpha" result="effect2_dropShadow_552_14248"/>
<feOffset dy="10"/>
<feGaussianBlur stdDeviation="7.5"/>
<feComposite in2="hardAlpha" operator="out"/>
<feColorMatrix type="matrix" values="0 0 0 0 0.917647 0 0 0 0 0.164706 0 0 0 0 0.2 0 0 0 0.2 0"/>
<feBlend mode="normal" in2="effect1_dropShadow_552_14248" result="effect2_dropShadow_552_14248"/>
<feBlend mode="normal" in="SourceGraphic" in2="effect2_dropShadow_552_14248" result="shape"/>
</filter>
</defs>
</svg>
