<svg width="104" height="104" viewBox="0 0 104 104" fill="none" xmlns="http://www.w3.org/2000/svg">
<rect x="4" y="4" width="96" height="96" rx="48" fill="#F0FDF4"/>
<g filter="url(#filter0_dd_1_372)">
<rect x="4" y="4" width="96" height="96" rx="48" fill="white" fill-opacity="0.01" shape-rendering="crispEdges"/>
</g>
<path d="M48.3125 64.75L66.875 46.1875L61.6875 40.9375L48.3125 54.3125L41.9375 47.9375L36.75 53.1875L48.3125 64.75ZM52 79.125C48.2083 79.125 44.6669 78.4149 41.3758 76.9948C38.0846 75.5746 35.2218 73.6473 32.7873 71.2127C30.3527 68.7782 28.4254 65.9154 27.0052 62.6242C25.5851 59.3331 24.875 55.7917 24.875 52C24.875 48.2083 25.5851 44.6669 27.0052 41.3758C28.4254 38.0846 30.3527 35.2218 32.7873 32.7873C35.2218 30.3527 38.0846 28.4254 41.3758 27.0052C44.6669 25.5851 48.2083 24.875 52 24.875C55.7917 24.875 59.3331 25.5851 62.6242 27.0052C65.9154 28.4254 68.7782 30.3527 71.2127 32.7873C73.6473 35.2218 75.5746 38.0846 76.9948 41.3758C78.4149 44.6669 79.125 48.2083 79.125 52C79.125 55.7917 78.4149 59.3331 76.9948 62.6242C75.5746 65.9154 73.6473 68.7782 71.2127 71.2127C68.7782 73.6473 65.9154 75.5746 62.6242 76.9948C59.3331 78.4149 55.7917 79.125 52 79.125ZM52 71.25C57.4167 71.25 61.9792 69.3958 65.6875 65.6875C69.3958 61.9792 71.25 57.4167 71.25 52C71.25 46.5833 69.3958 42.0208 65.6875 38.3125C61.9792 34.6042 57.4167 32.75 52 32.75C46.5833 32.75 42.0208 34.6042 38.3125 38.3125C34.6042 42.0208 32.75 46.5833 32.75 52C32.75 57.4167 34.6042 61.9792 38.3125 65.6875C42.0208 69.3958 46.5833 71.25 52 71.25Z" fill="#22C55E"/>
<defs>
<filter id="filter0_dd_1_372" x="0" y="0" width="104" height="104" filterUnits="userSpaceOnUse" color-interpolation-filters="sRGB">
<feFlood flood-opacity="0" result="BackgroundImageFix"/>
<feColorMatrix in="SourceAlpha" type="matrix" values="0 0 0 0 0 0 0 0 0 0 0 0 0 0 0 0 0 0 127 0" result="hardAlpha"/>
<feOffset dy="1"/>
<feGaussianBlur stdDeviation="1"/>
<feComposite in2="hardAlpha" operator="out"/>
<feColorMatrix type="matrix" values="0 0 0 0 0 0 0 0 0 0 0 0 0 0 0 0 0 0 0.05 0"/>
<feBlend mode="normal" in2="BackgroundImageFix" result="effect1_dropShadow_1_372"/>
<feColorMatrix in="SourceAlpha" type="matrix" values="0 0 0 0 0 0 0 0 0 0 0 0 0 0 0 0 0 0 127 0" result="hardAlpha"/>
<feMorphology radius="4" operator="dilate" in="SourceAlpha" result="effect2_dropShadow_1_372"/>
<feOffset/>
<feComposite in2="hardAlpha" operator="out"/>
<feColorMatrix type="matrix" values="0 0 0 0 0.941176 0 0 0 0 0.992157 0 0 0 0 0.956863 0 0 0 0.5 0"/>
<feBlend mode="normal" in2="effect1_dropShadow_1_372" result="effect2_dropShadow_1_372"/>
<feBlend mode="normal" in="SourceGraphic" in2="effect2_dropShadow_1_372" result="shape"/>
</filter>
</defs>
</svg>
